<?xml version="1.0" encoding="UTF-8"?>
<!DOCTYPE svg PUBLIC "-//W3C//DTD SVG 1.1//EN" "http://www.w3.org/Graphics/SVG/1.1/DTD/svg11.dtd">
<svg xmlns="http://www.w3.org/2000/svg" version="1.1" width="512px" height="512px" style="shape-rendering:geometricPrecision; text-rendering:geometricPrecision; image-rendering:optimizeQuality; fill-rule:evenodd; clip-rule:evenodd" xmlns:xlink="http://www.w3.org/1999/xlink">
<g><path style="opacity:0.984" fill="#42210c" d="M 246.5,-0.5 C 252.5,-0.5 258.5,-0.5 264.5,-0.5C 286.58,7.79924 296.08,23.7992 293,47.5C 324,83.5 355,119.5 386,155.5C 417.564,199.338 423.897,246.671 405,297.5C 398.072,313.039 388.905,327.039 377.5,339.5C 384.783,338.746 390.283,341.412 394,347.5C 394.5,362.83 394.667,378.163 394.5,393.5C 406.171,393.333 417.838,393.5 429.5,394C 433.333,395.167 435.833,397.667 437,401.5C 437.667,421.167 437.667,440.833 437,460.5C 436.167,465.333 433.333,468.167 428.5,469C 313.167,469.667 197.833,469.667 82.5,469C 77.6667,468.167 74.8333,465.333 74,460.5C 73.3333,440.833 73.3333,421.167 74,401.5C 75.1667,397.667 77.6667,395.167 81.5,394C 93.1619,393.5 104.829,393.333 116.5,393.5C 116.333,378.163 116.5,362.83 117,347.5C 117.833,344 120,341.833 123.5,341C 126.882,340.824 130.215,340.324 133.5,339.5C 96.4724,297.367 86.3057,249.367 103,195.5C 108.274,180.945 115.607,167.612 125,155.5C 155.626,119.205 186.626,83.2051 218,47.5C 214.92,23.7992 224.42,7.79924 246.5,-0.5 Z"/></g>
<g><path style="opacity:1" fill="#f9f8f7" d="M 251.5,21.5 C 252.873,21.3433 254.207,21.51 255.5,22C 246.044,32.4249 246.377,42.5915 256.5,52.5C 244.316,51.4742 238.816,44.8075 240,32.5C 241.748,26.584 245.581,22.9173 251.5,21.5 Z"/></g>
<g><path style="opacity:1" fill="#ecd2b8" d="M 251.5,21.5 C 265.263,20.0932 271.763,26.4266 271,40.5C 268.71,47.6268 263.877,51.6268 256.5,52.5C 246.377,42.5915 246.044,32.4249 255.5,22C 254.207,21.51 252.873,21.3433 251.5,21.5 Z"/></g>
<g><path style="opacity:1" fill="#fdfcfc" d="M 236.5,69.5 C 211.244,105.27 185.744,140.936 160,176.5C 133.246,223.202 135.58,268.202 167,311.5C 178.648,325.058 192.814,334.724 209.5,340.5C 194.163,340.667 178.83,340.5 163.5,340C 147.906,325.075 135.406,307.908 126,288.5C 109.978,245.83 115.312,206.163 142,169.5C 171.292,134.539 200.959,99.8723 231,65.5C 233.015,66.6966 234.849,68.0299 236.5,69.5 Z"/></g>
<g><path style="opacity:1" fill="#d9a595" d="M 307.5,116.5 C 296.135,100.81 284.801,85.1432 273.5,69.5C 275.188,67.6133 277.188,66.4466 279.5,66C 291,79.5 302.5,93 314,106.5C 312.933,110.429 310.766,113.762 307.5,116.5 Z"/></g>
<g><path style="opacity:1" fill="#eed4ba" d="M 236.5,69.5 C 248.757,74.7636 261.09,74.7636 273.5,69.5C 284.801,85.1432 296.135,100.81 307.5,116.5C 286.882,143.624 266.049,170.624 245,197.5C 243.002,208.5 247.502,213.333 258.5,212C 261.331,209.999 263.997,207.833 266.5,205.5C 287.813,186.522 309.147,167.522 330.5,148.5C 347.854,167.865 360.02,190.198 367,215.5C 375.156,258.362 363.323,294.529 331.5,324C 321.024,331.405 309.691,336.905 297.5,340.5C 268.167,340.5 238.833,340.5 209.5,340.5C 192.814,334.724 178.648,325.058 167,311.5C 135.58,268.202 133.246,223.202 160,176.5C 185.744,140.936 211.244,105.27 236.5,69.5 Z"/></g>
<g><path style="opacity:1" fill="#daa797" d="M 297.5,340.5 C 309.691,336.905 321.024,331.405 331.5,324C 363.323,294.529 375.156,258.362 367,215.5C 360.02,190.198 347.854,167.865 330.5,148.5C 309.147,167.522 287.813,186.522 266.5,205.5C 287.055,177.938 308.388,150.938 330.5,124.5C 344.854,141.02 359.021,157.686 373,174.5C 401.792,220.686 401.458,266.686 372,312.5C 364.204,321.964 356.038,331.131 347.5,340C 330.837,340.5 314.17,340.667 297.5,340.5 Z"/></g>
<g><path style="opacity:1" fill="#fefffe" d="M 138.5,362.5 C 152.5,362.5 166.5,362.5 180.5,362.5C 180.5,372.833 180.5,383.167 180.5,393.5C 166.5,393.5 152.5,393.5 138.5,393.5C 138.5,383.167 138.5,372.833 138.5,362.5 Z"/></g>
<g><path style="opacity:1" fill="#eed4ba" d="M 180.5,362.5 C 231.167,362.5 281.833,362.5 332.5,362.5C 332.5,372.833 332.5,383.167 332.5,393.5C 281.833,393.5 231.167,393.5 180.5,393.5C 180.5,383.167 180.5,372.833 180.5,362.5 Z"/></g>
<g><path style="opacity:1" fill="#dba897" d="M 332.5,362.5 C 345.833,362.5 359.167,362.5 372.5,362.5C 372.5,372.833 372.5,383.167 372.5,393.5C 359.167,393.5 345.833,393.5 332.5,393.5C 332.5,383.167 332.5,372.833 332.5,362.5 Z"/></g>
<g><path style="opacity:1" fill="#af998a" d="M 138.5,362.5 C 138.5,372.833 138.5,383.167 138.5,393.5C 152.5,393.5 166.5,393.5 180.5,393.5C 231.167,393.5 281.833,393.5 332.5,393.5C 345.833,393.5 359.167,393.5 372.5,393.5C 294.335,394.499 216.002,394.833 137.5,394.5C 137.172,383.654 137.506,372.987 138.5,362.5 Z"/></g>
<g><path style="opacity:1" fill="#fefffe" d="M 135.5,415.5 C 135.5,426.167 135.5,436.833 135.5,447.5C 122.167,447.5 108.833,447.5 95.5,447.5C 95.5,436.833 95.5,426.167 95.5,415.5C 108.833,415.5 122.167,415.5 135.5,415.5 Z"/></g>
<g><path style="opacity:1" fill="#efd5bb" d="M 135.5,415.5 C 214.5,415.5 293.5,415.5 372.5,415.5C 372.5,426.167 372.5,436.833 372.5,447.5C 293.5,447.5 214.5,447.5 135.5,447.5C 135.5,436.833 135.5,426.167 135.5,415.5 Z"/></g>
<g><path style="opacity:1" fill="#dca898" d="M 372.5,415.5 C 386.833,415.5 401.167,415.5 415.5,415.5C 415.5,426.167 415.5,436.833 415.5,447.5C 401.167,447.5 386.833,447.5 372.5,447.5C 372.5,436.833 372.5,426.167 372.5,415.5 Z"/></g>
</svg>
