<?xml version="1.0" encoding="UTF-8"?>
<!DOCTYPE svg PUBLIC "-//W3C//DTD SVG 1.1//EN" "http://www.w3.org/Graphics/SVG/1.1/DTD/svg11.dtd">
<svg xmlns="http://www.w3.org/2000/svg" version="1.1" width="512px" height="512px" style="shape-rendering:geometricPrecision; text-rendering:geometricPrecision; image-rendering:optimizeQuality; fill-rule:evenodd; clip-rule:evenodd" xmlns:xlink="http://www.w3.org/1999/xlink">
<g><path style="opacity:0.984" fill="#42210c" d="M 259.5,-0.5 C 263.833,-0.5 268.167,-0.5 272.5,-0.5C 313.23,47.2835 353.73,95.2835 394,143.5C 394.667,147.167 394.667,150.833 394,154.5C 383.578,199.021 373.078,243.521 362.5,288C 365.879,305.44 368.879,322.94 371.5,340.5C 376.844,340.334 382.177,340.501 387.5,341C 390.333,342.5 392.5,344.667 394,347.5C 394.5,362.83 394.667,378.163 394.5,393.5C 406.171,393.333 417.838,393.5 429.5,394C 433.333,395.167 435.833,397.667 437,401.5C 437.667,421.5 437.667,441.5 437,461.5C 435.833,465.333 433.333,467.833 429.5,469C 313.5,469.667 197.5,469.667 81.5,469C 77.6667,467.833 75.1667,465.333 74,461.5C 73.3333,441.5 73.3333,421.5 74,401.5C 75.1667,397.667 77.6667,395.167 81.5,394C 93.1619,393.5 104.829,393.333 116.5,393.5C 116.333,378.163 116.5,362.83 117,347.5C 118.5,344.667 120.667,342.5 123.5,341C 128.155,340.501 132.821,340.334 137.5,340.5C 137.027,313.769 137.527,287.102 139,260.5C 160.5,239 182,217.5 203.5,196C 178.823,197.701 154.157,199.867 129.5,202.5C 120.795,203.231 116.295,199.231 116,190.5C 112.006,164.876 108.672,139.209 106,113.5C 107.167,109.667 109.667,107.167 113.5,106C 160.538,89.2652 207.538,72.4318 254.5,55.5C 255.333,38.5098 255.833,21.5098 256,4.5C 256.997,2.67694 258.164,1.01027 259.5,-0.5 Z"/></g>
<g><path style="opacity:1" fill="#b59780" d="M 278.5,41.5 C 277.833,49.5 277.167,57.5 276.5,65.5C 276.334,56.8269 276.5,48.1603 277,39.5C 277.717,40.0442 278.217,40.7109 278.5,41.5 Z"/></g>
<g><path style="opacity:1" fill="#eed4ba" d="M 278.5,41.5 C 279.962,45.8175 282.128,49.8175 285,53.5C 308.16,85.8179 330.826,118.485 353,151.5C 353.751,156.572 353.418,161.572 352,166.5C 340,204.5 328,242.5 316,280.5C 317.152,293.456 317.818,306.456 318,319.5C 313.498,329.839 305.998,336.839 295.5,340.5C 278.5,340.5 261.5,340.5 244.5,340.5C 244.333,327.163 244.5,313.829 245,300.5C 252.856,285.623 260.022,270.457 266.5,255C 263.656,245.245 257.656,242.578 248.5,247C 239.95,262.598 231.784,278.432 224,294.5C 223.5,309.83 223.333,325.163 223.5,340.5C 216.167,340.5 208.833,340.5 201.5,340.5C 186.958,331.761 179.958,318.761 180.5,301.5C 180.815,288.761 183.982,276.761 190,265.5C 204.5,243.167 219,220.833 233.5,198.5C 233.376,197.893 233.043,197.56 232.5,197.5C 236.016,193.597 239.682,189.93 243.5,186.5C 250.292,181.913 254.292,175.58 255.5,167.5C 254.794,160.587 251.127,156.087 244.5,154C 240.167,153.333 235.833,153.333 231.5,154C 202.76,159.082 174.094,164.415 145.5,170C 142.076,170.747 138.743,170.58 135.5,169.5C 134.406,161.178 133.406,152.845 132.5,144.5C 136.351,139.486 141.017,135.319 146.5,132C 167.31,120.429 188.976,110.762 211.5,103C 228.983,97.3946 246.317,91.3946 263.5,85C 269.067,81.0249 273.067,75.8583 275.5,69.5C 275.833,68.1667 276.167,66.8333 276.5,65.5C 277.167,57.5 277.833,49.5 278.5,41.5 Z"/></g>
<g><path style="opacity:1" fill="#daa797" d="M 278.5,41.5 C 308.469,76.3085 338.302,111.308 368,146.5C 369.404,148.394 370.57,150.394 371.5,152.5C 361.38,197.22 351.047,241.887 340.5,286.5C 343.505,304.514 346.505,322.514 349.5,340.5C 331.5,340.5 313.5,340.5 295.5,340.5C 305.998,336.839 313.498,329.839 318,319.5C 317.818,306.456 317.152,293.456 316,280.5C 328,242.5 340,204.5 352,166.5C 353.418,161.572 353.751,156.572 353,151.5C 330.826,118.485 308.16,85.8179 285,53.5C 282.128,49.8175 279.962,45.8175 278.5,41.5 Z"/></g>
<g><path style="opacity:1" fill="#faf9f9" d="M 275.5,69.5 C 273.067,75.8583 269.067,81.0249 263.5,85C 246.317,91.3946 228.983,97.3946 211.5,103C 188.976,110.762 167.31,120.429 146.5,132C 141.017,135.319 136.351,139.486 132.5,144.5C 130.699,137.572 130.032,130.572 130.5,123.5C 176.392,106.721 222.392,90.2214 268.5,74C 271.202,72.9879 273.535,71.4879 275.5,69.5 Z"/></g>
<g><path style="opacity:1" fill="#d9a696" d="M 243.5,186.5 C 246.727,176.265 243.06,170.931 232.5,170.5C 200.518,173.765 168.518,176.765 136.5,179.5C 136.658,176.098 136.324,172.764 135.5,169.5C 138.743,170.58 142.076,170.747 145.5,170C 174.094,164.415 202.76,159.082 231.5,154C 235.833,153.333 240.167,153.333 244.5,154C 251.127,156.087 254.794,160.587 255.5,167.5C 254.292,175.58 250.292,181.913 243.5,186.5 Z"/></g>
<g><path style="opacity:1" fill="#fefdfd" d="M 232.5,197.5 C 233.043,197.56 233.376,197.893 233.5,198.5C 219,220.833 204.5,243.167 190,265.5C 183.982,276.761 180.815,288.761 180.5,301.5C 179.958,318.761 186.958,331.761 201.5,340.5C 187.5,340.5 173.5,340.5 159.5,340.5C 159.333,317.164 159.5,293.831 160,270.5C 184.368,246.299 208.535,221.965 232.5,197.5 Z"/></g>
<g><path style="opacity:1" fill="#fefffe" d="M 138.5,362.5 C 152.5,362.5 166.5,362.5 180.5,362.5C 180.5,372.833 180.5,383.167 180.5,393.5C 166.5,393.5 152.5,393.5 138.5,393.5C 138.5,383.167 138.5,372.833 138.5,362.5 Z"/></g>
<g><path style="opacity:1" fill="#eed4ba" d="M 180.5,362.5 C 231.167,362.5 281.833,362.5 332.5,362.5C 332.5,372.833 332.5,383.167 332.5,393.5C 281.833,393.5 231.167,393.5 180.5,393.5C 180.5,383.167 180.5,372.833 180.5,362.5 Z"/></g>
<g><path style="opacity:1" fill="#dba897" d="M 332.5,362.5 C 345.833,362.5 359.167,362.5 372.5,362.5C 372.5,372.833 372.5,383.167 372.5,393.5C 359.167,393.5 345.833,393.5 332.5,393.5C 332.5,383.167 332.5,372.833 332.5,362.5 Z"/></g>
<g><path style="opacity:1" fill="#af998a" d="M 138.5,362.5 C 138.5,372.833 138.5,383.167 138.5,393.5C 152.5,393.5 166.5,393.5 180.5,393.5C 231.167,393.5 281.833,393.5 332.5,393.5C 345.833,393.5 359.167,393.5 372.5,393.5C 294.335,394.499 216.002,394.833 137.5,394.5C 137.172,383.654 137.506,372.987 138.5,362.5 Z"/></g>
<g><path style="opacity:1" fill="#fefffe" d="M 135.5,415.5 C 135.5,426.167 135.5,436.833 135.5,447.5C 122.167,447.5 108.833,447.5 95.5,447.5C 95.5,436.833 95.5,426.167 95.5,415.5C 108.833,415.5 122.167,415.5 135.5,415.5 Z"/></g>
<g><path style="opacity:1" fill="#efd5bb" d="M 135.5,415.5 C 214.5,415.5 293.5,415.5 372.5,415.5C 372.5,426.167 372.5,436.833 372.5,447.5C 293.5,447.5 214.5,447.5 135.5,447.5C 135.5,436.833 135.5,426.167 135.5,415.5 Z"/></g>
<g><path style="opacity:1" fill="#dca898" d="M 372.5,415.5 C 386.833,415.5 401.167,415.5 415.5,415.5C 415.5,426.167 415.5,436.833 415.5,447.5C 401.167,447.5 386.833,447.5 372.5,447.5C 372.5,436.833 372.5,426.167 372.5,415.5 Z"/></g>
</svg>
