<?xml version="1.0" encoding="UTF-8"?>
<!DOCTYPE svg PUBLIC "-//W3C//DTD SVG 1.1//EN" "http://www.w3.org/Graphics/SVG/1.1/DTD/svg11.dtd">
<svg xmlns="http://www.w3.org/2000/svg" version="1.1" width="512px" height="512px" style="shape-rendering:geometricPrecision; text-rendering:geometricPrecision; image-rendering:optimizeQuality; fill-rule:evenodd; clip-rule:evenodd" xmlns:xlink="http://www.w3.org/1999/xlink">
<g><path style="opacity:0.984" fill="#42210b" d="M 259.5,-0.5 C 263.833,-0.5 268.167,-0.5 272.5,-0.5C 313.23,47.2835 353.73,95.2835 394,143.5C 394.667,147.167 394.667,150.833 394,154.5C 383.578,199.021 373.078,243.521 362.5,288C 365.879,305.44 368.879,322.94 371.5,340.5C 376.844,340.334 382.177,340.501 387.5,341C 390.333,342.5 392.5,344.667 394,347.5C 394.5,362.83 394.667,378.163 394.5,393.5C 406.171,393.333 417.838,393.5 429.5,394C 433.333,395.167 435.833,397.667 437,401.5C 437.667,421.5 437.667,441.5 437,461.5C 435.833,465.333 433.333,467.833 429.5,469C 313.5,469.667 197.5,469.667 81.5,469C 77.6667,467.833 75.1667,465.333 74,461.5C 73.3333,441.5 73.3333,421.5 74,401.5C 75.1667,397.667 77.6667,395.167 81.5,394C 93.1619,393.5 104.829,393.333 116.5,393.5C 116.333,378.163 116.5,362.83 117,347.5C 118.5,344.667 120.667,342.5 123.5,341C 128.155,340.501 132.821,340.334 137.5,340.5C 137.027,313.769 137.527,287.102 139,260.5C 160.5,239 182,217.5 203.5,196C 178.823,197.701 154.157,199.867 129.5,202.5C 120.795,203.231 116.295,199.231 116,190.5C 112.006,164.876 108.672,139.209 106,113.5C 107.167,109.667 109.667,107.167 113.5,106C 160.538,89.2652 207.538,72.4318 254.5,55.5C 255.333,38.5098 255.833,21.5098 256,4.5C 256.997,2.67694 258.164,1.01027 259.5,-0.5 Z"/></g>
<g><path style="opacity:1" fill="#6d645c" d="M 296.5,340.5 C 279.167,340.5 261.833,340.5 244.5,340.5C 244.333,327.163 244.5,313.829 245,300.5C 252.856,285.623 260.022,270.457 266.5,255C 263.656,245.245 257.656,242.578 248.5,247C 239.95,262.598 231.784,278.432 224,294.5C 223.5,309.83 223.333,325.163 223.5,340.5C 202.002,341.538 180.669,341.538 159.5,340.5C 173.504,340.667 187.504,340.5 201.5,340C 186.828,331.499 179.828,318.665 180.5,301.5C 180.815,288.761 183.982,276.761 190,265.5C 205.831,241.732 220.998,218.066 235.5,194.5C 238.736,191.719 241.736,188.719 244.5,185.5C 255.277,178.655 257.777,169.655 252,158.5C 250.048,156.106 247.548,154.606 244.5,154C 240.167,153.333 235.833,153.333 231.5,154C 199.759,159.699 168.092,165.532 136.5,171.5C 134.662,161.658 132.996,151.658 131.5,141.5C 132.222,141.918 132.722,142.584 133,143.5C 136.912,138.917 141.412,135.083 146.5,132C 157.554,125.806 168.888,120.139 180.5,115C 207.938,104.409 235.604,94.4093 263.5,85C 268.791,81.2604 272.791,76.4271 275.5,70.5C 275.376,69.8933 275.043,69.56 274.5,69.5C 275.73,67.7028 276.396,65.7028 276.5,63.5C 277.328,57.0126 277.828,50.346 278,43.5C 303.493,79.1511 328.493,115.151 353,151.5C 353.751,156.572 353.418,161.572 352,166.5C 340,204.5 328,242.5 316,280.5C 316.892,293.499 317.558,306.499 318,319.5C 313.587,329.414 306.421,336.414 296.5,340.5 Z"/></g>
<g><path style="opacity:1" fill="#544639" d="M 296.5,340.5 C 306.421,336.414 313.587,329.414 318,319.5C 317.558,306.499 316.892,293.499 316,280.5C 328,242.5 340,204.5 352,166.5C 353.418,161.572 353.751,156.572 353,151.5C 328.493,115.151 303.493,79.1511 278,43.5C 277.828,50.346 277.328,57.0126 276.5,63.5C 276.334,55.4931 276.5,47.4931 277,39.5C 308.096,76.6856 339.429,113.686 371,150.5C 371.114,153.833 370.781,157.166 370,160.5C 360.086,202.657 350.252,244.823 340.5,287C 343.557,304.841 346.557,322.675 349.5,340.5C 331.833,340.5 314.167,340.5 296.5,340.5 Z"/></g>
<g><path style="opacity:1" fill="#f9f8f7" d="M 274.5,69.5 C 275.043,69.56 275.376,69.8933 275.5,70.5C 272.791,76.4271 268.791,81.2604 263.5,85C 235.604,94.4093 207.938,104.409 180.5,115C 168.888,120.139 157.554,125.806 146.5,132C 141.412,135.083 136.912,138.917 133,143.5C 132.722,142.584 132.222,141.918 131.5,141.5C 131.022,136.484 130.355,131.484 129.5,126.5C 129.833,125.5 130.167,124.5 130.5,123.5C 176.392,106.721 222.392,90.2214 268.5,74C 271.106,73.2082 273.106,71.7082 274.5,69.5 Z"/></g>
<g><path style="opacity:1" fill="#54463a" d="M 244.5,185.5 C 245.999,174.667 241.332,169.667 230.5,170.5C 199.148,173.369 167.815,176.369 136.5,179.5C 136.5,176.833 136.5,174.167 136.5,171.5C 168.092,165.532 199.759,159.699 231.5,154C 235.833,153.333 240.167,153.333 244.5,154C 247.548,154.606 250.048,156.106 252,158.5C 257.777,169.655 255.277,178.655 244.5,185.5 Z"/></g>
<g><path style="opacity:1" fill="#fdfcfc" d="M 235.5,194.5 C 220.998,218.066 205.831,241.732 190,265.5C 183.982,276.761 180.815,288.761 180.5,301.5C 179.828,318.665 186.828,331.499 201.5,340C 187.504,340.5 173.504,340.667 159.5,340.5C 159.333,317.164 159.5,293.831 160,270.5C 185.368,245.299 210.535,219.965 235.5,194.5 Z"/></g>
<g><path style="opacity:1" fill="#fefffe" d="M 138.5,362.5 C 152.5,362.5 166.5,362.5 180.5,362.5C 180.5,372.833 180.5,383.167 180.5,393.5C 166.5,393.5 152.5,393.5 138.5,393.5C 138.5,383.167 138.5,372.833 138.5,362.5 Z"/></g>
<g><path style="opacity:1" fill="#6d645c" d="M 180.5,362.5 C 231.167,362.5 281.833,362.5 332.5,362.5C 332.5,372.833 332.5,383.167 332.5,393.5C 281.833,393.5 231.167,393.5 180.5,393.5C 180.5,383.167 180.5,372.833 180.5,362.5 Z"/></g>
<g><path style="opacity:1" fill="#554538" d="M 138.5,362.5 C 216.332,361.501 294.332,361.167 372.5,361.5C 372.5,372.5 372.5,383.5 372.5,394.5C 308.5,394.5 244.5,394.5 180.5,394.5C 180.5,394.167 180.5,393.833 180.5,393.5C 231.167,393.5 281.833,393.5 332.5,393.5C 332.5,383.167 332.5,372.833 332.5,362.5C 281.833,362.5 231.167,362.5 180.5,362.5C 166.5,362.5 152.5,362.5 138.5,362.5 Z"/></g>
<g><path style="opacity:1" fill="#ac9d94" d="M 138.5,362.5 C 138.5,372.833 138.5,383.167 138.5,393.5C 152.5,393.5 166.5,393.5 180.5,393.5C 180.5,393.833 180.5,394.167 180.5,394.5C 166.167,394.5 151.833,394.5 137.5,394.5C 137.172,383.654 137.506,372.987 138.5,362.5 Z"/></g>
<g><path style="opacity:1" fill="#fefffe" d="M 135.5,415.5 C 135.5,426.167 135.5,436.833 135.5,447.5C 122.167,447.5 108.833,447.5 95.5,447.5C 95.5,436.833 95.5,426.167 95.5,415.5C 108.833,415.5 122.167,415.5 135.5,415.5 Z"/></g>
<g><path style="opacity:1" fill="#6d645c" d="M 135.5,415.5 C 214.5,415.5 293.5,415.5 372.5,415.5C 372.5,426.167 372.5,436.833 372.5,447.5C 293.5,447.5 214.5,447.5 135.5,447.5C 135.5,436.833 135.5,426.167 135.5,415.5 Z"/></g>
<g><path style="opacity:1" fill="#54463a" d="M 372.5,415.5 C 386.833,415.5 401.167,415.5 415.5,415.5C 415.5,426.167 415.5,436.833 415.5,447.5C 401.167,447.5 386.833,447.5 372.5,447.5C 372.5,436.833 372.5,426.167 372.5,415.5 Z"/></g>
</svg>
