<?xml version="1.0" encoding="UTF-8"?>
<!DOCTYPE svg PUBLIC "-//W3C//DTD SVG 1.1//EN" "http://www.w3.org/Graphics/SVG/1.1/DTD/svg11.dtd">
<svg xmlns="http://www.w3.org/2000/svg" version="1.1" width="512px" height="512px" style="shape-rendering:geometricPrecision; text-rendering:geometricPrecision; image-rendering:optimizeQuality; fill-rule:evenodd; clip-rule:evenodd" xmlns:xlink="http://www.w3.org/1999/xlink">
<g><path style="opacity:0.982" fill="#42210c" d="M 250.5,-0.5 C 253.833,-0.5 257.167,-0.5 260.5,-0.5C 263.2,1.04602 265.033,3.37935 266,6.5C 266.5,14.8267 266.666,23.16 266.5,31.5C 278.838,31.3335 291.171,31.5001 303.5,32C 312.003,39.964 311.336,46.964 301.5,53C 289.838,53.4999 278.171,53.6665 266.5,53.5C 266.167,68.8478 266.501,84.1811 267.5,99.5C 301.148,83.8703 336.481,77.0369 373.5,79C 416.227,85.2849 445.727,108.452 462,148.5C 472.853,180.975 471.519,212.975 458,244.5C 440.247,281.832 415.413,313.665 383.5,340C 388.389,340.556 391.889,343.056 394,347.5C 394.5,362.83 394.667,378.163 394.5,393.5C 406.171,393.333 417.838,393.5 429.5,394C 433.333,395.167 435.833,397.667 437,401.5C 437.667,421.5 437.667,441.5 437,461.5C 435.833,465.333 433.333,467.833 429.5,469C 313.5,469.667 197.5,469.667 81.5,469C 77.6667,467.833 75.1667,465.333 74,461.5C 73.3333,441.5 73.3333,421.5 74,401.5C 75.1667,397.667 77.6667,395.167 81.5,394C 93.1619,393.5 104.829,393.333 116.5,393.5C 116.333,378.163 116.5,362.83 117,347.5C 119.111,343.056 122.611,340.556 127.5,340C 95.5868,313.665 70.7534,281.832 53,244.5C 35.1806,202.505 38.1806,162.172 62,123.5C 80.4399,97.4207 105.607,82.5873 137.5,79C 174.519,77.0369 209.852,83.8703 243.5,99.5C 244.499,84.1811 244.833,68.8478 244.5,53.5C 232.829,53.6665 221.162,53.4999 209.5,53C 199.664,46.964 198.997,39.964 207.5,32C 219.829,31.5001 232.162,31.3335 244.5,31.5C 244.334,23.16 244.5,14.8267 245,6.5C 245.967,3.37935 247.8,1.04602 250.5,-0.5 Z"/></g>
<g><path style="opacity:1" fill="#fdfdfc" d="M 179.5,102.5 C 146.56,98.7542 119.727,109.754 99,135.5C 81.9908,162.629 79.9908,190.962 93,220.5C 112.256,260.82 139.089,295.32 173.5,324C 184.939,331.724 197.272,337.224 210.5,340.5C 194.163,340.667 177.83,340.5 161.5,340C 133.214,318.049 108.714,292.549 88,263.5C 74.9467,244.06 66.9467,222.727 64,199.5C 61.4771,166.394 72.6438,138.894 97.5,117C 113.452,104.962 131.452,99.4618 151.5,100.5C 160.895,100.457 170.229,101.124 179.5,102.5 Z"/></g>
<g><path style="opacity:1" fill="#dba797" d="M 294.5,340.5 C 311.747,337.467 327.414,330.633 341.5,320C 366.392,296.794 387.892,270.961 406,242.5C 414.566,227.801 420.566,212.134 424,195.5C 428.851,163.742 418.685,138.242 393.5,119C 381.87,113.264 369.537,110.431 356.5,110.5C 312.57,114.903 270.903,127.236 231.5,147.5C 230.304,147.154 230.304,146.654 231.5,146C 239.024,139.969 246.357,133.802 253.5,127.5C 255.199,127.66 256.866,127.494 258.5,127C 282.431,115.467 307.431,107.134 333.5,102C 350.547,99.8238 367.547,100.157 384.5,103C 417.929,114.102 438.429,136.935 446,171.5C 449.902,202.895 443.235,231.895 426,258.5C 405.04,289.798 379.54,316.964 349.5,340C 331.17,340.5 312.836,340.667 294.5,340.5 Z"/></g>
<g><path style="opacity:1" fill="#eed4ba" d="M 179.5,102.5 C 205.128,108.043 229.795,116.376 253.5,127.5C 246.357,133.802 239.024,139.969 231.5,146C 230.304,146.654 230.304,147.154 231.5,147.5C 270.903,127.236 312.57,114.903 356.5,110.5C 369.537,110.431 381.87,113.264 393.5,119C 418.685,138.242 428.851,163.742 424,195.5C 420.566,212.134 414.566,227.801 406,242.5C 387.892,270.961 366.392,296.794 341.5,320C 327.414,330.633 311.747,337.467 294.5,340.5C 266.5,340.5 238.5,340.5 210.5,340.5C 197.272,337.224 184.939,331.724 173.5,324C 139.089,295.32 112.256,260.82 93,220.5C 79.9908,190.962 81.9908,162.629 99,135.5C 119.727,109.754 146.56,98.7542 179.5,102.5 Z"/></g>
<g><path style="opacity:1" fill="#fefffe" d="M 138.5,362.5 C 152.5,362.5 166.5,362.5 180.5,362.5C 180.5,372.833 180.5,383.167 180.5,393.5C 166.5,393.5 152.5,393.5 138.5,393.5C 138.5,383.167 138.5,372.833 138.5,362.5 Z"/></g>
<g><path style="opacity:1" fill="#eed4ba" d="M 180.5,362.5 C 231.167,362.5 281.833,362.5 332.5,362.5C 332.5,372.833 332.5,383.167 332.5,393.5C 281.833,393.5 231.167,393.5 180.5,393.5C 180.5,383.167 180.5,372.833 180.5,362.5 Z"/></g>
<g><path style="opacity:1" fill="#dba897" d="M 332.5,362.5 C 345.833,362.5 359.167,362.5 372.5,362.5C 372.5,372.833 372.5,383.167 372.5,393.5C 359.167,393.5 345.833,393.5 332.5,393.5C 332.5,383.167 332.5,372.833 332.5,362.5 Z"/></g>
<g><path style="opacity:1" fill="#af998a" d="M 138.5,362.5 C 138.5,372.833 138.5,383.167 138.5,393.5C 152.5,393.5 166.5,393.5 180.5,393.5C 231.167,393.5 281.833,393.5 332.5,393.5C 345.833,393.5 359.167,393.5 372.5,393.5C 294.335,394.499 216.002,394.833 137.5,394.5C 137.172,383.654 137.506,372.987 138.5,362.5 Z"/></g>
<g><path style="opacity:1" fill="#fefffe" d="M 135.5,415.5 C 135.5,426.167 135.5,436.833 135.5,447.5C 122.167,447.5 108.833,447.5 95.5,447.5C 95.5,436.833 95.5,426.167 95.5,415.5C 108.833,415.5 122.167,415.5 135.5,415.5 Z"/></g>
<g><path style="opacity:1" fill="#efd5bb" d="M 135.5,415.5 C 214.5,415.5 293.5,415.5 372.5,415.5C 372.5,426.167 372.5,436.833 372.5,447.5C 293.5,447.5 214.5,447.5 135.5,447.5C 135.5,436.833 135.5,426.167 135.5,415.5 Z"/></g>
<g><path style="opacity:1" fill="#dca898" d="M 372.5,415.5 C 386.833,415.5 401.167,415.5 415.5,415.5C 415.5,426.167 415.5,436.833 415.5,447.5C 401.167,447.5 386.833,447.5 372.5,447.5C 372.5,436.833 372.5,426.167 372.5,415.5 Z"/></g>
</svg>
