<?xml version="1.0" encoding="UTF-8"?>
<!DOCTYPE svg PUBLIC "-//W3C//DTD SVG 1.1//EN" "http://www.w3.org/Graphics/SVG/1.1/DTD/svg11.dtd">
<svg xmlns="http://www.w3.org/2000/svg" version="1.1" width="512px" height="512px" style="shape-rendering:geometricPrecision; text-rendering:geometricPrecision; image-rendering:optimizeQuality; fill-rule:evenodd; clip-rule:evenodd" xmlns:xlink="http://www.w3.org/1999/xlink">
<g><path style="opacity:0.984" fill="#42210b" d="M 243.5,20.5 C 293.519,17.7571 330.019,38.4238 353,82.5C 369.579,123.442 364.579,161.442 338,196.5C 332.635,202.199 326.969,207.533 321,212.5C 319.275,254.282 330.275,292.282 354,326.5C 357.799,331.301 361.966,335.801 366.5,340C 373.5,340.333 380.5,340.667 387.5,341C 390.333,342.5 392.5,344.667 394,347.5C 394.5,362.83 394.667,378.163 394.5,393.5C 406.171,393.333 417.838,393.5 429.5,394C 433.333,395.167 435.833,397.667 437,401.5C 437.667,421.5 437.667,441.5 437,461.5C 435.833,465.333 433.333,467.833 429.5,469C 313.5,469.667 197.5,469.667 81.5,469C 77.6667,467.833 75.1667,465.333 74,461.5C 73.3333,441.5 73.3333,421.5 74,401.5C 75.1667,397.667 77.6667,395.167 81.5,394C 93.1619,393.5 104.829,393.333 116.5,393.5C 116.333,378.163 116.5,362.83 117,347.5C 118.5,344.667 120.667,342.5 123.5,341C 130.5,340.667 137.5,340.333 144.5,340C 169.67,312.814 184.503,280.648 189,243.5C 190.392,233.199 190.726,222.866 190,212.5C 152.301,180.398 140.301,140.398 154,92.5C 164.81,63.3552 184.31,42.1886 212.5,29C 222.658,25.0468 232.991,22.2135 243.5,20.5 Z"/></g>
<g><path style="opacity:1" fill="#6d645c" d="M 275.5,44.5 C 313.546,79.3493 324.046,121.349 307,170.5C 299.603,186.303 289.103,199.637 275.5,210.5C 264.242,212.386 252.909,212.886 241.5,212C 235.374,211.226 229.708,209.393 224.5,206.5C 193.756,181.465 181.589,149.132 188,109.5C 193.355,84.0214 206.188,63.3548 226.5,47.5C 231.157,45.247 236.157,43.747 241.5,43C 252.925,42.0769 264.259,42.5769 275.5,44.5 Z"/></g>
<g><path style="opacity:1" fill="#544539" d="M 275.5,44.5 C 306.921,53.4199 327.754,73.4199 338,104.5C 346.263,143.726 334.43,175.226 302.5,199C 293.972,203.93 284.972,207.764 275.5,210.5C 289.103,199.637 299.603,186.303 307,170.5C 324.046,121.349 313.546,79.3493 275.5,44.5 Z"/></g>
<g><path style="opacity:1" fill="#fbfafa" d="M 226.5,47.5 C 206.188,63.3548 193.355,84.0214 188,109.5C 181.589,149.132 193.756,181.465 224.5,206.5C 199.274,196.438 182.44,178.438 174,152.5C 164.119,114.143 174.619,82.6428 205.5,58C 211.964,53.4345 218.964,49.9345 226.5,47.5 Z"/></g>
<g><path style="opacity:1" fill="#534438" d="M 216.5,341.5 C 252.331,340.667 288.331,340.167 324.5,340C 315.347,328.202 307.847,315.368 302,301.5C 295.735,283.109 290.402,264.442 286,245.5C 283.84,238.839 279.34,234.839 272.5,233.5C 281.453,231.007 290.453,228.341 299.5,225.5C 300.582,267.746 313.249,306.079 337.5,340.5C 297.172,341.5 256.839,341.833 216.5,341.5 Z"/></g>
<g><path style="opacity:1" fill="#fbfafa" d="M 224.5,229.5 C 221.915,257.099 216.415,284.099 208,310.5C 207.333,317.167 207.333,323.833 208,330.5C 208.998,334.493 211.165,337.659 214.5,340C 200.837,340.5 187.171,340.667 173.5,340.5C 198.242,306.277 211.242,267.944 212.5,225.5C 216.562,226.632 220.562,227.965 224.5,229.5 Z"/></g>
<g><path style="opacity:1" fill="#6d645c" d="M 224.5,229.5 C 240.183,234.314 256.183,235.647 272.5,233.5C 279.34,234.839 283.84,238.839 286,245.5C 290.402,264.442 295.735,283.109 302,301.5C 307.847,315.368 315.347,328.202 324.5,340C 288.331,340.167 252.331,340.667 216.5,341.5C 201.99,341.829 187.657,341.496 173.5,340.5C 187.171,340.667 200.837,340.5 214.5,340C 211.165,337.659 208.998,334.493 208,330.5C 207.333,323.833 207.333,317.167 208,310.5C 216.415,284.099 221.915,257.099 224.5,229.5 Z"/></g>
<g><path style="opacity:1" fill="#fefffe" d="M 138.5,362.5 C 151.5,362.5 164.5,362.5 177.5,362.5C 177.5,372.833 177.5,383.167 177.5,393.5C 164.5,393.5 151.5,393.5 138.5,393.5C 138.5,383.167 138.5,372.833 138.5,362.5 Z"/></g>
<g><path style="opacity:1" fill="#6c635b" d="M 177.5,362.5 C 229.167,362.5 280.833,362.5 332.5,362.5C 332.5,372.833 332.5,383.167 332.5,393.5C 280.833,393.5 229.167,393.5 177.5,393.5C 177.5,383.167 177.5,372.833 177.5,362.5 Z"/></g>
<g><path style="opacity:1" fill="#554538" d="M 138.5,362.5 C 216.332,361.501 294.332,361.167 372.5,361.5C 372.5,372.5 372.5,383.5 372.5,394.5C 307.5,394.5 242.5,394.5 177.5,394.5C 177.5,394.167 177.5,393.833 177.5,393.5C 229.167,393.5 280.833,393.5 332.5,393.5C 332.5,383.167 332.5,372.833 332.5,362.5C 280.833,362.5 229.167,362.5 177.5,362.5C 164.5,362.5 151.5,362.5 138.5,362.5 Z"/></g>
<g><path style="opacity:1" fill="#ac9d93" d="M 138.5,362.5 C 138.5,372.833 138.5,383.167 138.5,393.5C 151.5,393.5 164.5,393.5 177.5,393.5C 177.5,393.833 177.5,394.167 177.5,394.5C 164.167,394.5 150.833,394.5 137.5,394.5C 137.172,383.654 137.506,372.987 138.5,362.5 Z"/></g>
<g><path style="opacity:1" fill="#fefffe" d="M 135.5,415.5 C 135.5,426.167 135.5,436.833 135.5,447.5C 122.167,447.5 108.833,447.5 95.5,447.5C 95.5,436.833 95.5,426.167 95.5,415.5C 108.833,415.5 122.167,415.5 135.5,415.5 Z"/></g>
<g><path style="opacity:1" fill="#6d645c" d="M 135.5,415.5 C 214.5,415.5 293.5,415.5 372.5,415.5C 372.5,426.167 372.5,436.833 372.5,447.5C 293.5,447.5 214.5,447.5 135.5,447.5C 135.5,436.833 135.5,426.167 135.5,415.5 Z"/></g>
<g><path style="opacity:1" fill="#54463a" d="M 372.5,415.5 C 386.833,415.5 401.167,415.5 415.5,415.5C 415.5,426.167 415.5,436.833 415.5,447.5C 401.167,447.5 386.833,447.5 372.5,447.5C 372.5,436.833 372.5,426.167 372.5,415.5 Z"/></g>
</svg>
