<?xml version="1.0" encoding="UTF-8"?>
<!DOCTYPE svg PUBLIC "-//W3C//DTD SVG 1.1//EN" "http://www.w3.org/Graphics/SVG/1.1/DTD/svg11.dtd">
<svg xmlns="http://www.w3.org/2000/svg" version="1.1" width="512px" height="512px" style="shape-rendering:geometricPrecision; text-rendering:geometricPrecision; image-rendering:optimizeQuality; fill-rule:evenodd; clip-rule:evenodd" xmlns:xlink="http://www.w3.org/1999/xlink">
<g><path style="opacity:0.984" fill="#42210c" d="M 243.5,20.5 C 293.519,17.7571 330.019,38.4238 353,82.5C 369.579,123.442 364.579,161.442 338,196.5C 332.635,202.199 326.969,207.533 321,212.5C 319.275,254.282 330.275,292.282 354,326.5C 357.799,331.301 361.966,335.801 366.5,340C 373.5,340.333 380.5,340.667 387.5,341C 390.333,342.5 392.5,344.667 394,347.5C 394.5,362.83 394.667,378.163 394.5,393.5C 406.171,393.333 417.838,393.5 429.5,394C 433.333,395.167 435.833,397.667 437,401.5C 437.667,421.5 437.667,441.5 437,461.5C 435.833,465.333 433.333,467.833 429.5,469C 313.5,469.667 197.5,469.667 81.5,469C 77.6667,467.833 75.1667,465.333 74,461.5C 73.3333,441.5 73.3333,421.5 74,401.5C 75.1667,397.667 77.6667,395.167 81.5,394C 93.1619,393.5 104.829,393.333 116.5,393.5C 116.333,378.163 116.5,362.83 117,347.5C 118.5,344.667 120.667,342.5 123.5,341C 130.5,340.667 137.5,340.333 144.5,340C 169.67,312.814 184.503,280.648 189,243.5C 190.392,233.199 190.726,222.866 190,212.5C 152.301,180.398 140.301,140.398 154,92.5C 164.81,63.3552 184.31,42.1886 212.5,29C 222.658,25.0468 232.991,22.2135 243.5,20.5 Z"/></g>
<g><path style="opacity:1" fill="#eed4ba" d="M 275.5,44.5 C 313.542,79.3354 324.042,121.335 307,170.5C 299.603,186.303 289.103,199.637 275.5,210.5C 264.242,212.386 252.909,212.886 241.5,212C 234.371,210.901 227.705,208.734 221.5,205.5C 222.239,205.631 222.906,205.464 223.5,205C 198.497,185.824 186.164,160.324 186.5,128.5C 186.901,94.8814 200.235,67.8814 226.5,47.5C 231.157,45.247 236.157,43.747 241.5,43C 252.925,42.0769 264.259,42.5769 275.5,44.5 Z"/></g>
<g><path style="opacity:1" fill="#daa796" d="M 275.5,44.5 C 306.921,53.4199 327.754,73.4199 338,104.5C 346.273,143.695 334.439,175.195 302.5,199C 294.042,204.097 285.042,207.931 275.5,210.5C 289.103,199.637 299.603,186.303 307,170.5C 324.042,121.335 313.542,79.3354 275.5,44.5 Z"/></g>
<g><path style="opacity:1" fill="#fcfbfb" d="M 226.5,47.5 C 200.235,67.8814 186.901,94.8814 186.5,128.5C 186.164,160.324 198.497,185.824 223.5,205C 222.906,205.464 222.239,205.631 221.5,205.5C 183.594,186.707 166.761,156.041 171,113.5C 177.547,81.3828 196.047,59.3828 226.5,47.5 Z"/></g>
<g><path style="opacity:1" fill="#fcfcfb" d="M 224.5,229.5 C 221.628,257.029 216.128,284.029 208,310.5C 207.333,317.167 207.333,323.833 208,330.5C 209.212,334.528 211.379,337.862 214.5,340.5C 200.829,340.667 187.163,340.5 173.5,340C 198.342,305.977 211.342,267.81 212.5,225.5C 216.562,226.632 220.562,227.965 224.5,229.5 Z"/></g>
<g><path style="opacity:1" fill="#d9a695" d="M 324.5,340.5 C 310.707,322.579 300.874,302.579 295,280.5C 292.746,268.646 289.746,256.979 286,245.5C 283.84,238.839 279.34,234.839 272.5,233.5C 281.412,230.866 290.412,228.199 299.5,225.5C 300.491,267.639 313.157,305.805 337.5,340C 333.179,340.499 328.846,340.666 324.5,340.5 Z"/></g>
<g><path style="opacity:1" fill="#eed4bb" d="M 224.5,229.5 C 240.183,234.314 256.183,235.647 272.5,233.5C 279.34,234.839 283.84,238.839 286,245.5C 289.746,256.979 292.746,268.646 295,280.5C 300.874,302.579 310.707,322.579 324.5,340.5C 287.833,340.5 251.167,340.5 214.5,340.5C 211.379,337.862 209.212,334.528 208,330.5C 207.333,323.833 207.333,317.167 208,310.5C 216.128,284.029 221.628,257.029 224.5,229.5 Z"/></g>
<g><path style="opacity:1" fill="#fefffe" d="M 138.5,362.5 C 151.5,362.5 164.5,362.5 177.5,362.5C 177.5,372.833 177.5,383.167 177.5,393.5C 164.5,393.5 151.5,393.5 138.5,393.5C 138.5,383.167 138.5,372.833 138.5,362.5 Z"/></g>
<g><path style="opacity:1" fill="#eed4ba" d="M 177.5,362.5 C 229.167,362.5 280.833,362.5 332.5,362.5C 332.5,372.833 332.5,383.167 332.5,393.5C 280.833,393.5 229.167,393.5 177.5,393.5C 177.5,383.167 177.5,372.833 177.5,362.5 Z"/></g>
<g><path style="opacity:1" fill="#dba897" d="M 332.5,362.5 C 345.833,362.5 359.167,362.5 372.5,362.5C 372.5,372.833 372.5,383.167 372.5,393.5C 359.167,393.5 345.833,393.5 332.5,393.5C 332.5,383.167 332.5,372.833 332.5,362.5 Z"/></g>
<g><path style="opacity:1" fill="#af9989" d="M 138.5,362.5 C 138.5,372.833 138.5,383.167 138.5,393.5C 151.5,393.5 164.5,393.5 177.5,393.5C 229.167,393.5 280.833,393.5 332.5,393.5C 345.833,393.5 359.167,393.5 372.5,393.5C 294.335,394.499 216.002,394.833 137.5,394.5C 137.172,383.654 137.506,372.987 138.5,362.5 Z"/></g>
<g><path style="opacity:1" fill="#fefffe" d="M 135.5,415.5 C 135.5,426.167 135.5,436.833 135.5,447.5C 122.167,447.5 108.833,447.5 95.5,447.5C 95.5,436.833 95.5,426.167 95.5,415.5C 108.833,415.5 122.167,415.5 135.5,415.5 Z"/></g>
<g><path style="opacity:1" fill="#efd5bb" d="M 135.5,415.5 C 214.5,415.5 293.5,415.5 372.5,415.5C 372.5,426.167 372.5,436.833 372.5,447.5C 293.5,447.5 214.5,447.5 135.5,447.5C 135.5,436.833 135.5,426.167 135.5,415.5 Z"/></g>
<g><path style="opacity:1" fill="#dca898" d="M 372.5,415.5 C 386.833,415.5 401.167,415.5 415.5,415.5C 415.5,426.167 415.5,436.833 415.5,447.5C 401.167,447.5 386.833,447.5 372.5,447.5C 372.5,436.833 372.5,426.167 372.5,415.5 Z"/></g>
</svg>
