<?xml version="1.0" encoding="UTF-8"?>
<!DOCTYPE svg PUBLIC "-//W3C//DTD SVG 1.1//EN" "http://www.w3.org/Graphics/SVG/1.1/DTD/svg11.dtd">
<svg xmlns="http://www.w3.org/2000/svg" version="1.1" width="512px" height="512px" style="shape-rendering:geometricPrecision; text-rendering:geometricPrecision; image-rendering:optimizeQuality; fill-rule:evenodd; clip-rule:evenodd" xmlns:xlink="http://www.w3.org/1999/xlink">
<g><path style="opacity:0.984" fill="#42210c" d="M 246.5,-0.5 C 252.5,-0.5 258.5,-0.5 264.5,-0.5C 284.449,6.30113 293.949,20.3011 293,41.5C 291.937,50.4602 288.104,57.9602 281.5,64C 277.911,66.28 274.578,68.78 271.5,71.5C 278.247,109.994 285.414,148.328 293,186.5C 307.833,156.833 322.667,127.167 337.5,97.5C 322.389,81.6337 320.555,64.3004 332,45.5C 342.158,33.5096 354.992,29.0096 370.5,32C 395.559,40.6138 404.392,57.7805 397,83.5C 391.707,95.7237 382.54,103.057 369.5,105.5C 364.918,140.485 360.752,175.485 357,210.5C 376.296,188.202 395.963,166.202 416,144.5C 407.363,129.996 407.363,115.329 416,100.5C 431.166,82.9671 448.999,79.8005 469.5,91C 488.487,108.544 490.32,127.711 475,148.5C 467.171,155.999 457.837,159.999 447,160.5C 424.265,220.206 401.431,279.872 378.5,339.5C 385.446,338.889 390.613,341.555 394,347.5C 394.5,362.83 394.667,378.163 394.5,393.5C 406.171,393.333 417.838,393.5 429.5,394C 433.333,395.167 435.833,397.667 437,401.5C 437.667,421.5 437.667,441.5 437,461.5C 435.833,465.333 433.333,467.833 429.5,469C 313.5,469.667 197.5,469.667 81.5,469C 77.6667,467.833 75.1667,465.333 74,461.5C 73.3333,441.5 73.3333,421.5 74,401.5C 75.1667,397.667 77.6667,395.167 81.5,394C 93.1619,393.5 104.829,393.333 116.5,393.5C 116.333,378.163 116.5,362.83 117,347.5C 120.387,341.555 125.554,338.889 132.5,339.5C 109.569,279.872 86.7352,220.206 64,160.5C 38.2338,157.734 25.5672,143.401 26,117.5C 32.1219,91.841 48.2886,81.341 74.5,86C 95.6311,94.42 104.131,109.92 100,132.5C 98.8605,136.112 97.1939,139.446 95,142.5C 94.3333,143.5 94.3333,144.5 95,145.5C 114.667,167.167 134.333,188.833 154,210.5C 150.568,175.379 146.068,140.379 140.5,105.5C 118.071,98.328 108.571,82.9947 112,59.5C 122.103,33.871 140.27,25.7043 166.5,35C 186.156,48.1116 191.323,65.6116 182,87.5C 178.752,91.393 176.085,95.393 174,99.5C 188.667,128.833 203.333,158.167 218,187.5C 224.833,149.167 231.667,110.833 238.5,72.5C 237.135,69.452 234.802,67.2853 231.5,66C 215.182,49.658 213.349,31.8247 226,12.5C 231.697,6.24249 238.53,1.90916 246.5,-0.5 Z"/></g>
<g><path style="opacity:1" fill="#ebd1b7" d="M 251.5,20.5 C 265.364,20.1957 271.864,26.8624 271,40.5C 265.384,53.0538 256.55,55.8872 244.5,49C 236.127,36.7452 238.46,27.2452 251.5,20.5 Z"/></g>
<g><path style="opacity:1" fill="#fbf9f8" d="M 145.5,53.5 C 146.552,53.3505 147.552,53.5172 148.5,54C 141.016,62.6727 140.516,71.8393 147,81.5C 148.518,82.1634 149.685,83.1634 150.5,84.5C 136.583,83.7114 131.083,76.3781 134,62.5C 136.565,57.7565 140.398,54.7565 145.5,53.5 Z"/></g>
<g><path style="opacity:1" fill="#ecd2b9" d="M 145.5,53.5 C 159.753,52.9353 165.92,59.9353 164,74.5C 161.382,80.3906 156.882,83.724 150.5,84.5C 149.685,83.1634 148.518,82.1634 147,81.5C 140.516,71.8393 141.016,62.6727 148.5,54C 147.552,53.5172 146.552,53.3505 145.5,53.5 Z"/></g>
<g><path style="opacity:1" fill="#edd2b8" d="M 358.5,53.5 C 360.903,53.393 362.736,54.393 364,56.5C 370.829,67.1772 369.329,76.5105 359.5,84.5C 350.791,82.7854 346.457,77.452 346.5,68.5C 346.837,60.5025 350.837,55.5025 358.5,53.5 Z"/></g>
<g><path style="opacity:1" fill="#d8a494" d="M 358.5,53.5 C 373.549,53.7687 379.049,61.4353 375,76.5C 371.566,82.4161 366.4,85.0828 359.5,84.5C 369.329,76.5105 370.829,67.1772 364,56.5C 362.736,54.393 360.903,53.393 358.5,53.5 Z"/></g>
<g><path style="opacity:1" fill="#faf9f8" d="M 63.5,106.5 C 54.0112,116.938 54.3445,127.105 64.5,137C 62.8659,137.494 61.1992,137.66 59.5,137.5C 50.2763,134.064 46.443,127.398 48,117.5C 50.859,110.46 56.0257,106.794 63.5,106.5 Z"/></g>
<g><path style="opacity:1" fill="#ecd2b9" d="M 63.5,106.5 C 75.1925,108.033 80.3592,114.7 79,126.5C 75.3423,135.572 68.8423,139.239 59.5,137.5C 61.1992,137.66 62.8659,137.494 64.5,137C 54.3445,127.105 54.0112,116.938 63.5,106.5 Z"/></g>
<g><path style="opacity:1" fill="#ecd2b8" d="M 446.5,106.5 C 454.308,114.242 455.475,122.908 450,132.5C 448.223,134.79 446.056,136.457 443.5,137.5C 434.216,133.6 430.716,126.6 433,116.5C 435.393,110.268 439.893,106.935 446.5,106.5 Z"/></g>
<g><path style="opacity:1" fill="#d6a393" d="M 446.5,106.5 C 458.756,107.589 464.256,114.256 463,126.5C 459.333,135.576 452.833,139.243 443.5,137.5C 446.056,136.457 448.223,134.79 450,132.5C 455.475,122.908 454.308,114.242 446.5,106.5 Z"/></g>
<g><path style="opacity:1" fill="#eed3ba" d="M 384.5,213.5 C 370.898,248.04 356.732,282.374 342,316.5C 334.101,328.577 323.268,336.577 309.5,340.5C 273.5,340.5 237.5,340.5 201.5,340.5C 187.629,335.813 176.796,327.146 169,314.5C 155.201,281.597 141.701,248.597 128.5,215.5C 140.6,228.164 152.6,240.997 164.5,254C 171.328,256.725 176.495,254.891 180,248.5C 180.667,244.167 180.667,239.833 180,235.5C 175.666,202.159 171.666,168.826 168,135.5C 183.667,166.833 199.333,198.167 215,229.5C 221.361,236.331 227.361,235.998 233,228.5C 240.182,187.107 247.682,145.773 255.5,104.5C 263.206,145.068 270.372,185.734 277,226.5C 279.73,233.053 284.563,235.22 291.5,233C 293.624,231.878 295.457,230.378 297,228.5C 312.333,197.833 327.667,167.167 343,136.5C 339.744,169.55 335.744,202.55 331,235.5C 329.89,241.426 330.556,247.092 333,252.5C 337.182,255.78 341.682,256.28 346.5,254C 359.067,240.331 371.734,226.831 384.5,213.5 Z"/></g>
<g><path style="opacity:1" fill="#fdfdfc" d="M 128.5,215.5 C 141.701,248.597 155.201,281.597 169,314.5C 176.796,327.146 187.629,335.813 201.5,340.5C 186.167,340.5 170.833,340.5 155.5,340.5C 135.228,285.646 114.728,230.979 94,176.5C 105.708,189.371 117.208,202.371 128.5,215.5 Z"/></g>
<g><path style="opacity:1" fill="#dba797" d="M 309.5,340.5 C 323.268,336.577 334.101,328.577 342,316.5C 356.732,282.374 370.898,248.04 384.5,213.5C 394.423,201.406 404.923,189.739 416,178.5C 416.167,178.833 416.333,179.167 416.5,179.5C 395.567,232.969 375.234,286.635 355.5,340.5C 340.167,340.5 324.833,340.5 309.5,340.5 Z"/></g>
<g><path style="opacity:1" fill="#fefffe" d="M 138.5,362.5 C 152.5,362.5 166.5,362.5 180.5,362.5C 180.5,372.833 180.5,383.167 180.5,393.5C 166.5,393.5 152.5,393.5 138.5,393.5C 138.5,383.167 138.5,372.833 138.5,362.5 Z"/></g>
<g><path style="opacity:1" fill="#eed4bb" d="M 180.5,362.5 C 230.5,362.5 280.5,362.5 330.5,362.5C 330.5,372.833 330.5,383.167 330.5,393.5C 280.5,393.5 230.5,393.5 180.5,393.5C 180.5,383.167 180.5,372.833 180.5,362.5 Z"/></g>
<g><path style="opacity:1" fill="#dba897" d="M 330.5,362.5 C 344.5,362.5 358.5,362.5 372.5,362.5C 372.5,372.833 372.5,383.167 372.5,393.5C 358.5,393.5 344.5,393.5 330.5,393.5C 330.5,383.167 330.5,372.833 330.5,362.5 Z"/></g>
<g><path style="opacity:1" fill="#af998a" d="M 138.5,362.5 C 138.5,372.833 138.5,383.167 138.5,393.5C 152.5,393.5 166.5,393.5 180.5,393.5C 230.5,393.5 280.5,393.5 330.5,393.5C 344.5,393.5 358.5,393.5 372.5,393.5C 294.335,394.499 216.002,394.833 137.5,394.5C 137.172,383.654 137.506,372.987 138.5,362.5 Z"/></g>
<g><path style="opacity:1" fill="#fefffe" d="M 135.5,415.5 C 135.5,426.167 135.5,436.833 135.5,447.5C 122.167,447.5 108.833,447.5 95.5,447.5C 95.5,436.833 95.5,426.167 95.5,415.5C 108.833,415.5 122.167,415.5 135.5,415.5 Z"/></g>
<g><path style="opacity:1" fill="#efd5bb" d="M 135.5,415.5 C 214.5,415.5 293.5,415.5 372.5,415.5C 372.5,426.167 372.5,436.833 372.5,447.5C 293.5,447.5 214.5,447.5 135.5,447.5C 135.5,436.833 135.5,426.167 135.5,415.5 Z"/></g>
<g><path style="opacity:1" fill="#dca898" d="M 372.5,415.5 C 386.833,415.5 401.167,415.5 415.5,415.5C 415.5,426.167 415.5,436.833 415.5,447.5C 401.167,447.5 386.833,447.5 372.5,447.5C 372.5,436.833 372.5,426.167 372.5,415.5 Z"/></g>
</svg>
