<?xml version="1.0" encoding="UTF-8"?>
<!DOCTYPE svg PUBLIC "-//W3C//DTD SVG 1.1//EN" "http://www.w3.org/Graphics/SVG/1.1/DTD/svg11.dtd">
<svg xmlns="http://www.w3.org/2000/svg" version="1.1" width="512px" height="512px" style="shape-rendering:geometricPrecision; text-rendering:geometricPrecision; image-rendering:optimizeQuality; fill-rule:evenodd; clip-rule:evenodd" xmlns:xlink="http://www.w3.org/1999/xlink">
<g><path style="opacity:0.984" fill="#42210b" d="M 246.5,-0.5 C 252.5,-0.5 258.5,-0.5 264.5,-0.5C 284.449,6.30113 293.949,20.3011 293,41.5C 291.937,50.4602 288.104,57.9602 281.5,64C 277.911,66.28 274.578,68.78 271.5,71.5C 278.247,109.994 285.414,148.328 293,186.5C 307.833,156.833 322.667,127.167 337.5,97.5C 322.389,81.6337 320.555,64.3004 332,45.5C 342.158,33.5096 354.992,29.0096 370.5,32C 395.559,40.6138 404.392,57.7805 397,83.5C 391.707,95.7237 382.54,103.057 369.5,105.5C 364.918,140.485 360.752,175.485 357,210.5C 376.296,188.202 395.963,166.202 416,144.5C 407.363,129.996 407.363,115.329 416,100.5C 431.166,82.9671 448.999,79.8005 469.5,91C 488.487,108.544 490.32,127.711 475,148.5C 467.171,155.999 457.837,159.999 447,160.5C 424.265,220.206 401.431,279.872 378.5,339.5C 385.446,338.889 390.613,341.555 394,347.5C 394.5,362.83 394.667,378.163 394.5,393.5C 406.171,393.333 417.838,393.5 429.5,394C 433.333,395.167 435.833,397.667 437,401.5C 437.667,421.5 437.667,441.5 437,461.5C 435.833,465.333 433.333,467.833 429.5,469C 313.5,469.667 197.5,469.667 81.5,469C 77.6667,467.833 75.1667,465.333 74,461.5C 73.3333,441.5 73.3333,421.5 74,401.5C 75.1667,397.667 77.6667,395.167 81.5,394C 93.1619,393.5 104.829,393.333 116.5,393.5C 116.333,378.163 116.5,362.83 117,347.5C 120.387,341.555 125.554,338.889 132.5,339.5C 109.569,279.872 86.7352,220.206 64,160.5C 38.2338,157.734 25.5672,143.401 26,117.5C 32.1219,91.841 48.2886,81.341 74.5,86C 95.6311,94.42 104.131,109.92 100,132.5C 98.8605,136.112 97.1939,139.446 95,142.5C 94.3333,143.5 94.3333,144.5 95,145.5C 114.667,167.167 134.333,188.833 154,210.5C 150.568,175.379 146.068,140.379 140.5,105.5C 118.071,98.328 108.571,82.9947 112,59.5C 122.103,33.871 140.27,25.7043 166.5,35C 186.156,48.1116 191.323,65.6116 182,87.5C 178.752,91.393 176.085,95.393 174,99.5C 188.667,128.833 203.333,158.167 218,187.5C 224.833,149.167 231.667,110.833 238.5,72.5C 237.135,69.452 234.802,67.2853 231.5,66C 215.182,49.658 213.349,31.8247 226,12.5C 231.697,6.24249 238.53,1.90916 246.5,-0.5 Z"/></g>
<g><path style="opacity:1" fill="#6c625a" d="M 251.5,20.5 C 265.364,20.1957 271.864,26.8624 271,40.5C 265.384,53.0538 256.55,55.8872 244.5,49C 236.127,36.7452 238.46,27.2452 251.5,20.5 Z"/></g>
<g><path style="opacity:1" fill="#f8f7f6" d="M 145.5,53.5 C 146.552,53.3505 147.552,53.5172 148.5,54C 141.016,62.6727 140.516,71.8393 147,81.5C 151.699,83.6677 151.532,84.6677 146.5,84.5C 135.405,81.3265 131.238,73.9931 134,62.5C 136.565,57.7565 140.398,54.7565 145.5,53.5 Z"/></g>
<g><path style="opacity:1" fill="#6e645c" d="M 145.5,53.5 C 159.753,52.9353 165.92,59.9353 164,74.5C 160.316,82.0918 154.483,85.4251 146.5,84.5C 151.532,84.6677 151.699,83.6677 147,81.5C 140.516,71.8393 141.016,62.6727 148.5,54C 147.552,53.5172 146.552,53.3505 145.5,53.5 Z"/></g>
<g><path style="opacity:1" fill="#6c625a" d="M 358.5,53.5 C 361.988,54.1434 364.488,56.1434 366,59.5C 370.187,69.1356 368.354,77.4689 360.5,84.5C 351.469,83.301 346.802,78.1343 346.5,69C 346.601,60.7407 350.601,55.5741 358.5,53.5 Z"/></g>
<g><path style="opacity:1" fill="#534539" d="M 358.5,53.5 C 369.178,52.4881 375.178,57.4881 376.5,68.5C 376.16,78.8402 370.826,84.1735 360.5,84.5C 368.354,77.4689 370.187,69.1356 366,59.5C 364.488,56.1434 361.988,54.1434 358.5,53.5 Z"/></g>
<g><path style="opacity:1" fill="#f8f7f6" d="M 60.5,106.5 C 61.552,106.351 62.552,106.517 63.5,107C 54.0585,117.271 54.3918,127.271 64.5,137C 62.8659,137.494 61.1992,137.66 59.5,137.5C 51.7997,135.292 47.7997,130.125 47.5,122C 48.2129,113.715 52.5462,108.548 60.5,106.5 Z"/></g>
<g><path style="opacity:1" fill="#6e655d" d="M 60.5,106.5 C 71.0831,105.719 77.4164,110.719 79.5,121.5C 77.9332,133.581 71.2666,138.914 59.5,137.5C 61.1992,137.66 62.8659,137.494 64.5,137C 54.3918,127.271 54.0585,117.271 63.5,107C 62.552,106.517 61.552,106.351 60.5,106.5 Z"/></g>
<g><path style="opacity:1" fill="#6c625a" d="M 446.5,106.5 C 454.308,114.242 455.475,122.908 450,132.5C 448.223,134.79 446.056,136.457 443.5,137.5C 434.216,133.6 430.716,126.6 433,116.5C 435.393,110.268 439.893,106.935 446.5,106.5 Z"/></g>
<g><path style="opacity:1" fill="#534538" d="M 446.5,106.5 C 458.735,107.571 464.235,114.238 463,126.5C 459.333,135.576 452.833,139.243 443.5,137.5C 446.056,136.457 448.223,134.79 450,132.5C 455.475,122.908 454.308,114.242 446.5,106.5 Z"/></g>
<g><path style="opacity:1" fill="#6c635b" d="M 384.5,213.5 C 371.289,246.925 357.789,280.259 344,313.5C 335.824,326.853 324.324,335.853 309.5,340.5C 258.33,340.808 207.33,340.808 156.5,340.5C 171.504,340.667 186.504,340.5 201.5,340C 187.459,335.629 176.625,327.129 169,314.5C 155.201,281.597 141.701,248.597 128.5,215.5C 140.6,228.164 152.6,240.997 164.5,254C 171.328,256.725 176.495,254.891 180,248.5C 180.667,244.167 180.667,239.833 180,235.5C 175.338,202.203 171.338,168.87 168,135.5C 183.667,166.833 199.333,198.167 215,229.5C 223.119,236.979 229.452,235.645 234,225.5C 240.688,185.08 247.855,144.747 255.5,104.5C 263.205,145.064 270.372,185.73 277,226.5C 279.73,233.053 284.563,235.22 291.5,233C 293.624,231.878 295.457,230.378 297,228.5C 312.318,197.864 327.651,167.198 343,136.5C 339.543,169.513 335.543,202.513 331,235.5C 329.89,241.426 330.556,247.092 333,252.5C 337.182,255.78 341.682,256.28 346.5,254C 359.067,240.331 371.734,226.831 384.5,213.5 Z"/></g>
<g><path style="opacity:1" fill="#fcfcfc" d="M 128.5,215.5 C 141.701,248.597 155.201,281.597 169,314.5C 176.625,327.129 187.459,335.629 201.5,340C 186.504,340.5 171.504,340.667 156.5,340.5C 135.365,285.926 114.532,231.26 94,176.5C 105.708,189.371 117.208,202.371 128.5,215.5 Z"/></g>
<g><path style="opacity:1" fill="#544539" d="M 309.5,340.5 C 324.324,335.853 335.824,326.853 344,313.5C 357.789,280.259 371.289,246.925 384.5,213.5C 394.4,201.426 404.9,189.759 416,178.5C 395.761,232.374 375.594,286.374 355.5,340.5C 340.167,340.5 324.833,340.5 309.5,340.5 Z"/></g>
<g><path style="opacity:1" fill="#fefffe" d="M 138.5,362.5 C 152.5,362.5 166.5,362.5 180.5,362.5C 180.5,372.833 180.5,383.167 180.5,393.5C 166.5,393.5 152.5,393.5 138.5,393.5C 138.5,383.167 138.5,372.833 138.5,362.5 Z"/></g>
<g><path style="opacity:1" fill="#6d645c" d="M 180.5,362.5 C 230.5,362.5 280.5,362.5 330.5,362.5C 330.5,372.833 330.5,383.167 330.5,393.5C 280.5,393.5 230.5,393.5 180.5,393.5C 180.5,383.167 180.5,372.833 180.5,362.5 Z"/></g>
<g><path style="opacity:1" fill="#554538" d="M 138.5,362.5 C 216.332,361.501 294.332,361.167 372.5,361.5C 372.5,372.5 372.5,383.5 372.5,394.5C 308.5,394.5 244.5,394.5 180.5,394.5C 180.5,394.167 180.5,393.833 180.5,393.5C 230.5,393.5 280.5,393.5 330.5,393.5C 330.5,383.167 330.5,372.833 330.5,362.5C 280.5,362.5 230.5,362.5 180.5,362.5C 166.5,362.5 152.5,362.5 138.5,362.5 Z"/></g>
<g><path style="opacity:1" fill="#ac9d94" d="M 138.5,362.5 C 138.5,372.833 138.5,383.167 138.5,393.5C 152.5,393.5 166.5,393.5 180.5,393.5C 180.5,393.833 180.5,394.167 180.5,394.5C 166.167,394.5 151.833,394.5 137.5,394.5C 137.172,383.654 137.506,372.987 138.5,362.5 Z"/></g>
<g><path style="opacity:1" fill="#fefffe" d="M 135.5,415.5 C 135.5,426.167 135.5,436.833 135.5,447.5C 122.167,447.5 108.833,447.5 95.5,447.5C 95.5,436.833 95.5,426.167 95.5,415.5C 108.833,415.5 122.167,415.5 135.5,415.5 Z"/></g>
<g><path style="opacity:1" fill="#6d645c" d="M 135.5,415.5 C 214.5,415.5 293.5,415.5 372.5,415.5C 372.5,426.167 372.5,436.833 372.5,447.5C 293.5,447.5 214.5,447.5 135.5,447.5C 135.5,436.833 135.5,426.167 135.5,415.5 Z"/></g>
<g><path style="opacity:1" fill="#54463a" d="M 372.5,415.5 C 386.833,415.5 401.167,415.5 415.5,415.5C 415.5,426.167 415.5,436.833 415.5,447.5C 401.167,447.5 386.833,447.5 372.5,447.5C 372.5,436.833 372.5,426.167 372.5,415.5 Z"/></g>
</svg>
