<?xml version="1.0" encoding="UTF-8"?>
<!DOCTYPE svg PUBLIC "-//W3C//DTD SVG 1.1//EN" "http://www.w3.org/Graphics/SVG/1.1/DTD/svg11.dtd">
<svg xmlns="http://www.w3.org/2000/svg" version="1.1" width="512px" height="512px" style="shape-rendering:geometricPrecision; text-rendering:geometricPrecision; image-rendering:optimizeQuality; fill-rule:evenodd; clip-rule:evenodd" xmlns:xlink="http://www.w3.org/1999/xlink">
<g><path style="opacity:0.984" fill="#42210b" d="M 123.5,20.5 C 143.836,20.3334 164.169,20.5 184.5,21C 187.583,21.786 189.749,23.6193 191,26.5C 191.5,42.1631 191.667,57.8298 191.5,73.5C 198.5,73.5 205.5,73.5 212.5,73.5C 212.03,57.4044 212.53,41.4044 214,25.5C 215.543,23.6217 217.376,22.1217 219.5,21C 243.5,20.3333 267.5,20.3333 291.5,21C 293.624,22.1217 295.457,23.6217 297,25.5C 298.47,41.4044 298.97,57.4044 298.5,73.5C 305.5,73.5 312.5,73.5 319.5,73.5C 319.333,57.8298 319.5,42.1631 320,26.5C 321.251,23.6193 323.417,21.786 326.5,21C 346.833,20.3333 367.167,20.3333 387.5,21C 390.333,22.5 392.5,24.6667 394,27.5C 394.667,72.8333 394.667,118.167 394,163.5C 392.5,166.333 390.333,168.5 387.5,170C 368.503,170.5 349.503,170.667 330.5,170.5C 334.522,228.921 347.522,285.254 369.5,339.5C 375.472,340.33 381.472,340.83 387.5,341C 390.333,342.5 392.5,344.667 394,347.5C 394.5,362.83 394.667,378.163 394.5,393.5C 406.171,393.333 417.838,393.5 429.5,394C 433.333,395.167 435.833,397.667 437,401.5C 437.667,421.5 437.667,441.5 437,461.5C 435.833,465.333 433.333,467.833 429.5,469C 313.5,469.667 197.5,469.667 81.5,469C 77.6667,467.833 75.1667,465.333 74,461.5C 73.3333,441.5 73.3333,421.5 74,401.5C 75.1667,397.667 77.6667,395.167 81.5,394C 93.1619,393.5 104.829,393.333 116.5,393.5C 116.333,378.163 116.5,362.83 117,347.5C 118.5,344.667 120.667,342.5 123.5,341C 129.748,340.812 135.915,340.312 142,339.5C 163.566,285.172 176.399,228.838 180.5,170.5C 161.497,170.667 142.497,170.5 123.5,170C 120.667,168.5 118.5,166.333 117,163.5C 116.333,118.167 116.333,72.8333 117,27.5C 118.694,24.6424 120.861,22.309 123.5,20.5 Z"/></g>
<g><path style="opacity:1" fill="#fefffe" d="M 138.5,42.5 C 143.5,42.5 148.5,42.5 153.5,42.5C 153.5,77.8333 153.5,113.167 153.5,148.5C 148.5,148.5 143.5,148.5 138.5,148.5C 138.5,113.167 138.5,77.8333 138.5,42.5 Z"/></g>
<g><path style="opacity:1" fill="#6d645c" d="M 153.5,42.5 C 158.833,42.5 164.167,42.5 169.5,42.5C 169.171,57.3428 169.504,72.0095 170.5,86.5C 171.524,90.3619 173.857,93.1952 177.5,95C 193.5,95.6667 209.5,95.6667 225.5,95C 229.896,94.2703 232.73,91.7703 234,87.5C 234.5,72.5037 234.667,57.5037 234.5,42.5C 248.5,42.5 262.5,42.5 276.5,42.5C 276.333,57.5037 276.5,72.5037 277,87.5C 278.105,90.9371 280.272,93.4371 283.5,95C 299.833,95.6667 316.167,95.6667 332.5,95C 335.196,94.3102 337.363,92.8102 339,90.5C 340.47,74.5956 340.97,58.5956 340.5,42.5C 345.167,42.5 349.833,42.5 354.5,42.5C 354.5,77.8333 354.5,113.167 354.5,148.5C 287.5,148.5 220.5,148.5 153.5,148.5C 153.5,113.167 153.5,77.8333 153.5,42.5 Z"/></g>
<g><path style="opacity:1" fill="#5f4c3e" d="M 138.5,42.5 C 148.987,41.5056 159.654,41.1722 170.5,41.5C 170.5,56.5 170.5,71.5 170.5,86.5C 169.504,72.0095 169.171,57.3428 169.5,42.5C 164.167,42.5 158.833,42.5 153.5,42.5C 148.5,42.5 143.5,42.5 138.5,42.5 Z"/></g>
<g><path style="opacity:1" fill="#534438" d="M 354.5,42.5 C 360.5,42.5 366.5,42.5 372.5,42.5C 372.5,78.1667 372.5,113.833 372.5,149.5C 294.332,149.833 216.332,149.499 138.5,148.5C 143.5,148.5 148.5,148.5 153.5,148.5C 220.5,148.5 287.5,148.5 354.5,148.5C 354.5,113.167 354.5,77.8333 354.5,42.5 Z"/></g>
<g><path style="opacity:1" fill="#fcfcfb" d="M 222.5,170.5 C 218.969,219.901 209.969,268.234 195.5,315.5C 196.97,328.809 204.303,336.976 217.5,340C 199.995,340.829 182.662,340.662 165.5,339.5C 175.372,313.013 183.538,286.013 190,258.5C 196.758,229.546 200.591,200.212 201.5,170.5C 208.5,170.5 215.5,170.5 222.5,170.5 Z"/></g>
<g><path style="opacity:1" fill="#6d645c" d="M 222.5,170.5 C 236.833,170.5 251.167,170.5 265.5,170.5C 276.54,174.032 284.707,181.032 290,191.5C 294.115,232.412 302.449,272.412 315,311.5C 318.686,321.397 322.853,331.063 327.5,340.5C 291.996,340.168 256.663,340.502 221.5,341.5C 202.488,341.833 183.488,341.5 164.5,340.5C 164.624,339.893 164.957,339.56 165.5,339.5C 182.662,340.662 199.995,340.829 217.5,340C 204.303,336.976 196.97,328.809 195.5,315.5C 209.969,268.234 218.969,219.901 222.5,170.5 Z"/></g>
<g><path style="opacity:1" fill="#534539" d="M 265.5,170.5 C 280.167,170.5 294.833,170.5 309.5,170.5C 312.554,228.773 324.554,285.106 345.5,339.5C 339.69,340.49 333.69,340.823 327.5,340.5C 322.853,331.063 318.686,321.397 315,311.5C 302.449,272.412 294.115,232.412 290,191.5C 284.707,181.032 276.54,174.032 265.5,170.5 Z"/></g>
<g><path style="opacity:1" fill="#4f3524" d="M 345.5,339.5 C 346.043,339.56 346.376,339.893 346.5,340.5C 304.839,341.5 263.172,341.833 221.5,341.5C 256.663,340.502 291.996,340.168 327.5,340.5C 333.69,340.823 339.69,340.49 345.5,339.5 Z"/></g>
<g><path style="opacity:1" fill="#fefffe" d="M 138.5,362.5 C 151.5,362.5 164.5,362.5 177.5,362.5C 177.5,372.833 177.5,383.167 177.5,393.5C 164.5,393.5 151.5,393.5 138.5,393.5C 138.5,383.167 138.5,372.833 138.5,362.5 Z"/></g>
<g><path style="opacity:1" fill="#6c635b" d="M 177.5,362.5 C 229.167,362.5 280.833,362.5 332.5,362.5C 332.5,372.833 332.5,383.167 332.5,393.5C 280.833,393.5 229.167,393.5 177.5,393.5C 177.5,383.167 177.5,372.833 177.5,362.5 Z"/></g>
<g><path style="opacity:1" fill="#554538" d="M 138.5,362.5 C 216.332,361.501 294.332,361.167 372.5,361.5C 372.5,372.5 372.5,383.5 372.5,394.5C 307.5,394.5 242.5,394.5 177.5,394.5C 177.5,394.167 177.5,393.833 177.5,393.5C 229.167,393.5 280.833,393.5 332.5,393.5C 332.5,383.167 332.5,372.833 332.5,362.5C 280.833,362.5 229.167,362.5 177.5,362.5C 164.5,362.5 151.5,362.5 138.5,362.5 Z"/></g>
<g><path style="opacity:1" fill="#ac9d93" d="M 138.5,362.5 C 138.5,372.833 138.5,383.167 138.5,393.5C 151.5,393.5 164.5,393.5 177.5,393.5C 177.5,393.833 177.5,394.167 177.5,394.5C 164.167,394.5 150.833,394.5 137.5,394.5C 137.172,383.654 137.506,372.987 138.5,362.5 Z"/></g>
<g><path style="opacity:1" fill="#fefffe" d="M 135.5,415.5 C 135.5,426.167 135.5,436.833 135.5,447.5C 122.167,447.5 108.833,447.5 95.5,447.5C 95.5,436.833 95.5,426.167 95.5,415.5C 108.833,415.5 122.167,415.5 135.5,415.5 Z"/></g>
<g><path style="opacity:1" fill="#6d645c" d="M 135.5,415.5 C 214.5,415.5 293.5,415.5 372.5,415.5C 372.5,426.167 372.5,436.833 372.5,447.5C 293.5,447.5 214.5,447.5 135.5,447.5C 135.5,436.833 135.5,426.167 135.5,415.5 Z"/></g>
<g><path style="opacity:1" fill="#54463a" d="M 372.5,415.5 C 386.833,415.5 401.167,415.5 415.5,415.5C 415.5,426.167 415.5,436.833 415.5,447.5C 401.167,447.5 386.833,447.5 372.5,447.5C 372.5,436.833 372.5,426.167 372.5,415.5 Z"/></g>
</svg>
