<?xml version="1.0" encoding="UTF-8"?>
<!DOCTYPE svg PUBLIC "-//W3C//DTD SVG 1.1//EN" "http://www.w3.org/Graphics/SVG/1.1/DTD/svg11.dtd">
<svg xmlns="http://www.w3.org/2000/svg" version="1.1" width="100px" height="100px" style="shape-rendering:geometricPrecision; text-rendering:geometricPrecision; image-rendering:optimizeQuality; fill-rule:evenodd; clip-rule:evenodd" xmlns:xlink="http://www.w3.org/1999/xlink">
<g><path style="opacity:0.956" fill="#e6706f" d="M -0.5,-0.5 C 13.5,-0.5 27.5,-0.5 41.5,-0.5C 18.7306,5.26934 4.73065,19.6027 -0.5,42.5C -0.5,28.1667 -0.5,13.8333 -0.5,-0.5 Z"/></g>
<g><path style="opacity:0.954" fill="#e6706f" d="M 57.5,-0.5 C 71.5,-0.5 85.5,-0.5 99.5,-0.5C 99.5,13.8333 99.5,28.1667 99.5,42.5C 94.2694,19.6027 80.2694,5.26934 57.5,-0.5 Z"/></g>
<g><path style="opacity:0.955" fill="#e6706f" d="M -0.5,56.5 C 4.83333,79.8333 19.1667,94.1667 42.5,99.5C 28.1667,99.5 13.8333,99.5 -0.5,99.5C -0.5,85.1667 -0.5,70.8333 -0.5,56.5 Z"/></g>
<g><path style="opacity:0.955" fill="#e6706f" d="M 99.5,56.5 C 99.5,70.8333 99.5,85.1667 99.5,99.5C 85.1667,99.5 70.8333,99.5 56.5,99.5C 79.8333,94.1667 94.1667,79.8333 99.5,56.5 Z"/></g>
</svg>
